<?xml version="1.0" standalone="no"?>
<!DOCTYPE svg PUBLIC "-//W3C//DTD SVG 20010904//EN"
 "http://www.w3.org/TR/2001/REC-SVG-20010904/DTD/svg10.dtd">
<svg version="1.0" xmlns="http://www.w3.org/2000/svg"
 width="1080.000000pt" height="1080.000000pt" viewBox="0 0 1080.000000 1080.000000"
 preserveAspectRatio="xMidYMid meet">
<metadata>
Created by potrace 1.14, written by Peter Selinger 2001-2017
</metadata>
<g transform="translate(0.000000,1080.000000) scale(0.100000,-0.100000)"
fill="#000000" stroke="none">
<path d="M5149 9996 c-2 -2 -49 -7 -104 -10 -55 -4 -116 -9 -135 -12 -19 -2
-53 -6 -75 -8 -86 -9 -316 -49 -440 -77 -622 -140 -1176 -392 -1722 -783 -33
-24 -210 -164 -229 -181 -6 -5 -44 -39 -85 -74 -82 -71 -329 -317 -399 -397
-80 -91 -94 -108 -166 -199 -266 -338 -477 -695 -639 -1080 -7 -16 -20 -46
-29 -67 -9 -20 -16 -38 -16 -41 0 -3 -5 -18 -12 -34 -6 -15 -12 -32 -14 -38
-2 -5 -24 -71 -49 -145 -78 -227 -147 -513 -180 -745 -4 -22 -8 -47 -10 -55
-2 -8 -7 -44 -10 -80 -4 -36 -9 -78 -11 -95 -19 -142 -26 -673 -11 -840 13
-138 55 -453 62 -465 2 -3 6 -26 10 -50 9 -62 68 -307 100 -410 14 -47 27 -92
29 -100 2 -8 22 -67 44 -130 126 -363 310 -729 530 -1054 66 -98 177 -250 207
-283 5 -6 21 -26 35 -44 14 -18 30 -37 35 -43 6 -6 37 -42 70 -81 62 -73 327
-341 405 -410 624 -553 1366 -921 2175 -1079 11 -2 31 -7 45 -10 14 -3 43 -8
65 -11 22 -3 65 -10 95 -15 30 -5 82 -12 115 -16 33 -3 68 -8 79 -10 138 -26
753 -25 976 2 60 7 176 22 225 29 91 13 308 59 430 91 71 18 141 36 154 39 78
19 419 142 536 194 375 168 739 388 1040 630 71 57 101 82 190 160 81 72 326
320 395 401 36 41 67 77 70 80 12 12 122 151 143 179 219 307 300 437 426 686
127 249 209 448 288 700 34 109 98 347 107 395 2 14 7 36 10 50 3 14 8 39 11
55 3 17 12 68 20 115 8 47 17 101 19 120 3 19 9 69 15 111 33 247 36 780 6
1019 -2 19 -7 55 -9 80 -11 85 -16 125 -26 180 -5 30 -12 69 -15 85 -4 26 -20
108 -41 205 -26 126 -134 488 -168 565 -8 17 -17 41 -21 55 -4 14 -15 43 -25
65 -10 22 -37 85 -61 140 -124 286 -321 627 -502 870 -58 76 -161 208 -182
231 -5 6 -32 38 -60 70 -85 101 -385 395 -505 495 -454 377 -948 655 -1490
839 -69 23 -132 44 -140 46 -201 53 -406 103 -444 108 -27 4 -52 9 -55 11 -3
1 -31 6 -61 10 -30 4 -57 8 -60 10 -3 1 -32 6 -65 10 -32 3 -62 8 -65 10 -3 1
-45 6 -95 10 -49 4 -103 9 -120 11 -38 5 -611 14 -616 10z"/>
</g>
</svg>
